<svg width="108" height="108" viewBox="0 0 108 108" fill="none" xmlns="http://www.w3.org/2000/svg">
<path d="M30 18C39.9411 18 48 26.0589 48 36V72C48 81.9411 39.9411 90 30 90C20.0589 90 12 81.9411 12 72V36C12 26.0589 20.0589 18 30 18Z" stroke="#202020" stroke-width="4"/>
<path d="M54 18C63.9411 18 72 26.0589 72 36V72C72 81.9411 63.9411 90 54 90C44.0589 90 36 81.9411 36 72V36C36 26.0589 44.0589 18 54 18Z" stroke="#202020" stroke-width="4"/>
<path d="M78 18C87.9411 18 96 26.0589 96 36V72C96 81.9411 87.9411 90 78 90C68.0589 90 60 81.9411 60 72V36C60 26.0589 68.0589 18 78 18Z" stroke="#202020" stroke-width="4"/>
</svg>
