<svg width="100" height="100" viewBox="0 0 100 100" fill="none" xmlns="http://www.w3.org/2000/svg">
<path d="M23 14C33.4934 14 42 22.5066 42 33V67C42 77.4934 33.4934 86 23 86C12.5066 86 4 77.4934 4 67V33C4 22.5066 12.5066 14 23 14Z" stroke="#787878" stroke-width="4"/>
<path d="M50 14C60.4934 14 69 22.5066 69 33V67C69 77.4934 60.4934 86 50 86C39.5066 86 31 77.4934 31 67V33C31 22.5066 39.5066 14 50 14Z" stroke="#787878" stroke-width="4"/>
<path d="M77 14C87.4934 14 96 22.5066 96 33V67C96 77.4934 87.4934 86 77 86C66.5066 86 58 77.4934 58 67V33C58 22.5066 66.5066 14 77 14Z" stroke="#787878" stroke-width="4"/>
</svg>
