<svg width="100" height="100" viewBox="0 0 100 100" fill="none" xmlns="http://www.w3.org/2000/svg">
<path d="M26 14C36.4934 14 45 22.5066 45 33V67C45 77.4934 36.4934 86 26 86C15.5066 86 7 77.4934 7 67V33C7 22.5066 15.5066 14 26 14Z" stroke="#202020" stroke-width="4"/>
<path d="M50 14C60.4934 14 69 22.5066 69 33V67C69 77.4934 60.4934 86 50 86C39.5066 86 31 77.4934 31 67V33C31 22.5066 39.5066 14 50 14Z" stroke="#202020" stroke-width="4"/>
<path d="M74 14C84.4934 14 93 22.5066 93 33V67C93 77.4934 84.4934 86 74 86C63.5066 86 55 77.4934 55 67V33C55 22.5066 63.5066 14 74 14Z" stroke="#202020" stroke-width="4"/>
</svg>
