<svg width="90" height="76" viewBox="0 0 90 76" fill="none" xmlns="http://www.w3.org/2000/svg">
<g clip-path="url(#clip0_181_7)">
<path d="M21 2C31.4934 2 40 10.5066 40 21V55C40 65.4934 31.4934 74 21 74C10.5066 74 2 65.4934 2 55V21C2 10.5066 10.5066 2 21 2Z" stroke="#202020" stroke-width="4"/>
<path d="M45 2C55.4934 2 64 10.5066 64 21V55C64 65.4934 55.4934 74 45 74C34.5066 74 26 65.4934 26 55V21C26 10.5066 34.5066 2 45 2Z" stroke="#202020" stroke-width="4"/>
<path d="M69 2C79.4934 2 88 10.5066 88 21V55C88 65.4934 79.4934 74 69 74C58.5066 74 50 65.4934 50 55V21C50 10.5066 58.5066 2 69 2Z" stroke="#202020" stroke-width="4"/>
</g>
<defs>
<clipPath id="clip0_181_7">
<rect width="90" height="76" fill="white"/>
</clipPath>
</defs>
</svg>
